<svg xmlns="http://www.w3.org/2000/svg" width="193" height="28" fill="none">
  <g clip-path="url(#a)">
    <mask id="b" fill="#fff">
      <path
        d="M1.088 2.313c0-.353.285-.637.638-.637h12.56c3.67 0 6.517 1.03 8.414 2.929 1.608 1.608 2.474 3.877 2.474 6.6v.083c0 4.66-2.515 7.59-6.187 8.951l6.37 9.315a.638.638 0 0 1-.527.998h-5.875a.642.642 0 0 1-.531-.283l-5.871-8.768a.429.429 0 0 0-.353-.19H7.86a.425.425 0 0 0-.425.426v8.176a.636.636 0 0 1-.637.637H1.726a.636.636 0 0 1-.638-.637v-27.6ZM13.874 15.7c3.092 0 4.866-1.65 4.866-4.083v-.083c0-2.723-1.897-4.125-4.992-4.125H7.862a.425.425 0 0 0-.425.425v7.44c0 .237.192.426.425.426h6.012Zm11.591 3.917v-.083c0-6.351 5.115-11.509 12.002-11.509 6.887 0 11.92 5.073 11.92 11.426v.083c0 6.351-5.114 11.509-12.003 11.509s-11.92-5.073-11.92-11.426h.001Zm17.735 0v-.083c0-3.258-2.351-6.105-5.816-6.105-3.464 0-5.733 2.764-5.733 6.022v.083c0 3.259 2.351 6.105 5.816 6.105s5.733-2.764 5.733-6.022ZM51.553.438h4.994c.352 0 .637.284.637.637v28.833a.636.636 0 0 1-.637.638h-4.994a.636.636 0 0 1-.638-.638V1.075c0-.353.285-.637.638-.637Zm7.157 19.179v-.083c0-6.311 4.494-11.509 10.93-11.509 7.384 0 10.766 5.733 10.766 12.004 0 .323-.017.68-.04 1.05a.64.64 0 0 1-.638.598h-14.24a.425.425 0 0 0-.41.542c.743 2.492 2.642 3.79 5.263 3.79 1.935 0 3.38-.56 4.948-1.897a.637.637 0 0 1 .838.004l2.696 2.385a.638.638 0 0 1 .053.905c-2.039 2.267-4.877 3.637-8.618 3.637-6.64 0-11.549-4.66-11.549-11.426Zm15.09-1.855a.425.425 0 0 0 .418-.503c-.495-2.526-2.1-4.197-4.58-4.197-2.479 0-4.076 1.631-4.677 4.182a.425.425 0 0 0 .416.52h8.422v-.002ZM97.133 23.5a.425.425 0 0 1-.707 0l-6.99-10.494a.425.425 0 0 0-.78.234v16.67a.636.636 0 0 1-.638.638h-4.953a.636.636 0 0 1-.638-.638V2.313c0-.353.285-.637.638-.637h5.854a.64.64 0 0 1 .542.301l7.041 11.327a.425.425 0 0 0 .723 0l7.041-11.327a.64.64 0 0 1 .542-.301h5.854c.353 0 .637.284.637.637V29.91a.636.636 0 0 1-.637.638h-5.034a.636.636 0 0 1-.637-.638V13.117a.425.425 0 0 0-.78-.234L97.138 23.5h-.005Zm16.064-3.883v-.083c0-6.351 5.115-11.509 12.001-11.509 6.887 0 11.921 5.073 11.921 11.426v.083c0 6.351-5.115 11.509-12.004 11.509-6.888 0-11.92-5.073-11.92-11.426h.002Zm17.735 0v-.083c0-3.258-2.352-6.105-5.817-6.105-3.464 0-5.733 2.764-5.733 6.022v.083c0 3.259 2.352 6.105 5.816 6.105 3.465 0 5.734-2.764 5.734-6.022Zm7.26-.083v-.083c0-7.384 4.826-11.426 10.064-11.426 2.834 0 4.745 1.096 6.169 2.513.265.265.72.07.72-.306V1.075c0-.353.284-.637.637-.637h4.994c.353 0 .637.284.637.637v28.833a.636.636 0 0 1-.637.638h-4.994a.636.636 0 0 1-.637-.638v-1.35c0-.385-.474-.576-.733-.294-1.455 1.593-3.388 2.694-6.154 2.694-5.155 0-10.064-4.043-10.064-11.426l-.002.002Zm17.033 0v-.083c0-3.67-2.434-6.105-5.361-6.105-2.927 0-5.404 2.392-5.404 6.105v.083c0 3.67 2.475 6.105 5.404 6.105s5.361-2.434 5.361-6.105Zm7.425.083v-.083c0-6.311 4.497-11.509 10.931-11.509 7.383 0 10.765 5.733 10.765 12.004 0 .323-.017.68-.04 1.05a.64.64 0 0 1-.638.598h-14.24a.424.424 0 0 0-.41.542c.743 2.492 2.642 3.79 5.264 3.79 1.933 0 3.379-.56 4.947-1.897a.637.637 0 0 1 .839.004l2.696 2.385a.638.638 0 0 1 .053.905c-2.04 2.267-4.877 3.637-8.618 3.637-6.64 0-11.549-4.66-11.549-11.426Zm15.09-1.855a.425.425 0 0 0 .418-.503c-.495-2.526-2.101-4.197-4.577-4.197-2.477 0-4.077 1.631-4.678 4.182a.426.426 0 0 0 .417.52h8.422l-.002-.002ZM186.634.438h4.994c.352 0 .637.284.637.637v28.833a.637.637 0 0 1-.637.638h-4.994a.637.637 0 0 1-.638-.638V1.075c0-.353.285-.637.638-.637Z" />
    </mask>
    <path stroke="rgba(22, 51, 60, 0.3)" stroke-width=".425"
      d="M1.088 2.313c0-.353.285-.637.638-.637h12.56c3.67 0 6.517 1.03 8.414 2.929 1.608 1.608 2.474 3.877 2.474 6.6v.083c0 4.66-2.515 7.59-6.187 8.951l6.37 9.315a.638.638 0 0 1-.527.998h-5.875a.642.642 0 0 1-.531-.283l-5.871-8.768a.429.429 0 0 0-.353-.19H7.86a.425.425 0 0 0-.425.426v8.176a.636.636 0 0 1-.637.637H1.726a.636.636 0 0 1-.638-.637v-27.6ZM13.874 15.7c3.092 0 4.866-1.65 4.866-4.083v-.083c0-2.723-1.897-4.125-4.992-4.125H7.862a.425.425 0 0 0-.425.425v7.44c0 .237.192.426.425.426h6.012Zm11.591 3.917v-.083c0-6.351 5.115-11.509 12.002-11.509 6.887 0 11.92 5.073 11.92 11.426v.083c0 6.351-5.114 11.509-12.003 11.509s-11.92-5.073-11.92-11.426h.001Zm17.735 0v-.083c0-3.258-2.351-6.105-5.816-6.105-3.464 0-5.733 2.764-5.733 6.022v.083c0 3.259 2.351 6.105 5.816 6.105s5.733-2.764 5.733-6.022ZM51.553.438h4.994c.352 0 .637.284.637.637v28.833a.636.636 0 0 1-.637.638h-4.994a.636.636 0 0 1-.638-.638V1.075c0-.353.285-.637.638-.637Zm7.157 19.179v-.083c0-6.311 4.494-11.509 10.93-11.509 7.384 0 10.766 5.733 10.766 12.004 0 .323-.017.68-.04 1.05a.64.64 0 0 1-.638.598h-14.24a.425.425 0 0 0-.41.542c.743 2.492 2.642 3.79 5.263 3.79 1.935 0 3.38-.56 4.948-1.897a.637.637 0 0 1 .838.004l2.696 2.385a.638.638 0 0 1 .053.905c-2.039 2.267-4.877 3.637-8.618 3.637-6.64 0-11.549-4.66-11.549-11.426Zm15.09-1.855a.425.425 0 0 0 .418-.503c-.495-2.526-2.1-4.197-4.58-4.197-2.479 0-4.076 1.631-4.677 4.182a.425.425 0 0 0 .416.52h8.422v-.002ZM97.133 23.5a.425.425 0 0 1-.707 0l-6.99-10.494a.425.425 0 0 0-.78.234v16.67a.636.636 0 0 1-.638.638h-4.953a.636.636 0 0 1-.638-.638V2.313c0-.353.285-.637.638-.637h5.854a.64.64 0 0 1 .542.301l7.041 11.327a.425.425 0 0 0 .723 0l7.041-11.327a.64.64 0 0 1 .542-.301h5.854c.353 0 .637.284.637.637V29.91a.636.636 0 0 1-.637.638h-5.034a.636.636 0 0 1-.637-.638V13.117a.425.425 0 0 0-.78-.234L97.138 23.5h-.005Zm16.064-3.883v-.083c0-6.351 5.115-11.509 12.001-11.509 6.887 0 11.921 5.073 11.921 11.426v.083c0 6.351-5.115 11.509-12.004 11.509-6.888 0-11.92-5.073-11.92-11.426h.002Zm17.735 0v-.083c0-3.258-2.352-6.105-5.817-6.105-3.464 0-5.733 2.764-5.733 6.022v.083c0 3.259 2.352 6.105 5.816 6.105 3.465 0 5.734-2.764 5.734-6.022Zm7.26-.083v-.083c0-7.384 4.826-11.426 10.064-11.426 2.834 0 4.745 1.096 6.169 2.513.265.265.72.07.72-.306V1.075c0-.353.284-.637.637-.637h4.994c.353 0 .637.284.637.637v28.833a.636.636 0 0 1-.637.638h-4.994a.636.636 0 0 1-.637-.638v-1.35c0-.385-.474-.576-.733-.294-1.455 1.593-3.388 2.694-6.154 2.694-5.155 0-10.064-4.043-10.064-11.426l-.002.002Zm17.033 0v-.083c0-3.67-2.434-6.105-5.361-6.105-2.927 0-5.404 2.392-5.404 6.105v.083c0 3.67 2.475 6.105 5.404 6.105s5.361-2.434 5.361-6.105Zm7.425.083v-.083c0-6.311 4.497-11.509 10.931-11.509 7.383 0 10.765 5.733 10.765 12.004 0 .323-.017.68-.04 1.05a.64.64 0 0 1-.638.598h-14.24a.424.424 0 0 0-.41.542c.743 2.492 2.642 3.79 5.264 3.79 1.933 0 3.379-.56 4.947-1.897a.637.637 0 0 1 .839.004l2.696 2.385a.638.638 0 0 1 .053.905c-2.04 2.267-4.877 3.637-8.618 3.637-6.64 0-11.549-4.66-11.549-11.426Zm15.09-1.855a.425.425 0 0 0 .418-.503c-.495-2.526-2.101-4.197-4.577-4.197-2.477 0-4.077 1.631-4.678 4.182a.426.426 0 0 0 .417.52h8.422l-.002-.002ZM186.634.438h4.994c.352 0 .637.284.637.637v28.833a.637.637 0 0 1-.637.638h-4.994a.637.637 0 0 1-.638-.638V1.075c0-.353.285-.637.638-.637Z"
      mask="url(#b)" />
  </g>
  <defs>
    <clipPath id="a">
      <path fill="none" d="M0 0h193v28H0z" />
    </clipPath>
  </defs>
</svg>
